<?xml version="1.0" encoding="UTF-8"?>
<svg width="20px" height="18px" viewBox="0 0 20 18" version="1.1" xmlns="http://www.w3.org/2000/svg" xmlns:xlink="http://www.w3.org/1999/xlink">
    <title>DB5033BA-7707-4D30-9532-6F221E8DEBDF@1.5x</title>
    <g id="🚧-Designs-" stroke="none" stroke-width="1" fill="none" fill-rule="evenodd">
        <g id="1.-Login-" transform="translate(-1008, -675)" fill="#0089D6" fill-rule="nonzero">
            <g id="Content" transform="translate(850, 60)">
                <g id="Button" transform="translate(0, 528)">
                    <g id="Button/L/Ghost/Default" transform="translate(0, 72)">
                        <g id="Content" transform="translate(158, 13)">
                            <g id="Logo_Azure" transform="translate(0, 2.9)">
                                <path d="M9.25249619,15.3348612 C11.8220318,14.8601783 13.9443214,14.4673782 13.9686963,14.4619726 L14.0130147,14.4521438 L11.5871198,11.4345906 C10.2528786,9.77493609 9.16122611,8.41060202 9.16122611,8.4027373 C9.16122611,8.38784701 11.6661675,1.17415842 11.6802494,1.14847662 C11.6849577,1.13991409 13.3896464,4.21767398 15.8125267,8.60918783 C18.0808716,12.7206018 19.951012,16.1104773 19.9683944,16.1422431 L20,16.2 L12.2903059,16.1989601 L4.58061325,16.1979243 L9.25249619,15.3348641 L9.25249619,15.3348612 Z M0,14.4146528 C0,14.4104043 1.14306993,12.3353338 2.54015535,9.80338333 L5.08031029,5.19983747 L8.04056723,2.60191667 C9.66870853,1.17306056 11.0052086,0.0022495279 11.0105669,5.55585475e-05 C11.0159252,-0.00202060293 10.9945074,0.0543518034 10.9629717,0.125387064 C10.931436,0.196422324 9.48494591,3.4409494 7.74854928,7.33544695 L4.59146527,14.4163514 L2.29573263,14.4193614 C1.03307997,14.4210185 0,14.4188963 0,14.4146512 L0,14.4146528 Z" id="path21"></path>
                            </g>
                        </g>
                    </g>
                </g>
            </g>
        </g>
    </g>
</svg>