<?xml version="1.0" encoding="UTF-8"?>
<svg width="228px" height="65px" viewBox="0 0 228 65" version="1.1" xmlns="http://www.w3.org/2000/svg" xmlns:xlink="http://www.w3.org/1999/xlink">
    <title>09E7D86D-CEEE-460E-8AB8-209CD9D5962F@1.5x</title>
    <defs>
        <linearGradient x1="50.0025215%" y1="99.9877475%" x2="50.0025215%" y2="3.48236981e-15%" id="linearGradient-1">
            <stop stop-color="#472F92" offset="0%"></stop>
            <stop stop-color="#1E79C8" offset="56%"></stop>
            <stop stop-color="#00AEEF" offset="100%"></stop>
        </linearGradient>
    </defs>
    <g id="🚧-Designs-" stroke="none" stroke-width="1" fill="none" fill-rule="evenodd">
        <g id="1.-Login-" transform="translate(-850, -60)" fill-rule="nonzero">
            <g id="Logo" transform="translate(850, 60)">
                <g id="--Plaza" transform="translate(116.8367, 26.9767)" fill="#472F92">
                    <polygon id="Path" points="0 14.3871365 0 17.2936288 10.6167232 17.2936288 10.6167232 14.3871365"></polygon>
                    <path d="M29.0214924,12.4252543 L29.0214924,2.90649223 L35.8544008,2.90649223 C37.8381483,2.90649223 39.289223,3.3121901 40.2076246,4.12358585 C41.1260263,4.9349816 41.5852271,6.11574407 41.5852271,7.66587326 C41.5852271,9.21600245 41.1260263,10.4028201 40.2076246,11.2263262 C39.289223,12.0498324 37.8381483,12.4494751 35.8544008,12.4252543 L29.0214924,12.4252543 Z M25.5315661,0 L25.5315661,25.9404432 L29.0214924,25.9404432 L29.0214924,15.3317465 L37.0299549,15.3317465 C39.6749517,15.3559673 41.6770673,14.6898961 43.0363017,13.3335331 C44.3955362,11.9771701 45.0751534,10.0879501 45.0751534,7.66587326 C45.0751534,5.2437964 44.3955362,3.36063164 43.0363017,2.01637898 C41.6770673,0.672126328 39.6749517,0 37.0299549,0 L25.5315661,0 Z" id="Shape"></path>
                    <polygon id="Path" points="49.0059125 0 49.0059125 25.9404432 52.1284782 25.9404432 52.1284782 0"></polygon>
                    <path d="M73.8027573,25.8677809 C73.2639617,26.1826508 72.516995,26.3400858 71.5618573,26.3400858 C70.7536638,26.3400858 70.1107826,26.1160437 69.6332138,25.6679595 C69.1556449,25.2198753 68.9168605,24.487197 68.9168605,23.4699248 C68.0596856,24.487197 67.0616891,25.2198753 65.9228711,25.6679595 C64.784053,26.1160437 63.5533948,26.3400858 62.2308964,26.3400858 C61.3737215,26.3400858 60.5594054,26.2432028 59.787948,26.0494366 C59.0164906,25.8556705 58.3491187,25.5529109 57.7858324,25.1411578 C57.222546,24.7294047 56.7755906,24.1904926 56.444966,23.5244215 C56.1143414,22.8583504 55.9490291,22.0530098 55.9490291,21.1083998 C55.9490291,20.042686 56.1327094,19.1707383 56.5000701,18.4925568 C56.8674307,17.8143753 57.3511223,17.2633528 57.9511447,16.8394894 C58.5511671,16.4156259 59.236907,16.0947007 60.0083644,15.8767138 C60.7798218,15.6587269 61.5696472,15.4770711 62.3778407,15.3317465 C63.2350156,15.1622011 64.0493317,15.0350421 64.8207891,14.9502694 C65.5922465,14.8654967 66.2718637,14.7443929 66.8596408,14.5869579 C67.4474178,14.4295229 67.9127413,14.1994256 68.2556113,13.896666 C68.5984812,13.5939064 68.7699162,13.1518773 68.7699162,12.5705789 C68.7699162,11.8923974 68.64134,11.3474301 68.3841875,10.935677 C68.1270351,10.523924 67.7964105,10.209054 67.3923137,9.99106704 C66.988217,9.77308013 66.5351388,9.62775551 66.0330793,9.55509321 C65.5310197,9.4824309 65.0350828,9.44609975 64.5452686,9.44609975 C63.2227702,9.44609975 62.1206882,9.69436263 61.2390226,10.1908884 C60.357357,10.6874141 59.8797882,11.6259689 59.806316,13.0065527 L56.6837504,13.0065527 C56.7327318,11.8439558 56.9776389,10.8630147 57.4184717,10.0637293 C57.8593045,9.26444398 58.4470816,8.61653843 59.1818029,8.12001267 C59.9165242,7.62348691 60.7553311,7.26623058 61.6982234,7.04824366 C62.6411158,6.83025674 63.6513576,6.72126328 64.7289489,6.72126328 C65.5861238,6.72126328 66.437176,6.7818152 67.2821055,6.90291905 C68.1270351,7.02402289 68.8923698,7.27228577 69.5781097,7.64770768 C70.2638496,8.02312959 70.8148906,8.54993131 71.2312327,9.22811283 C71.6475747,9.90629435 71.8557458,10.7903524 71.8557458,11.880287 L71.8557458,21.5443737 C71.8557458,22.2709967 71.8986045,22.8038536 71.984322,23.1429444 C72.0700395,23.4820351 72.3578054,23.6515805 72.8476196,23.6515805 C73.1170174,23.6515805 73.4353966,23.5910286 73.8027573,23.4699248 L73.8027573,25.8677809 Z M68.7331801,16.2400253 C68.3413288,16.5306746 67.8270238,16.7426063 67.1902654,16.8758205 C66.5535069,17.0090347 65.886135,17.1180282 65.1881497,17.2028009 C64.4901645,17.2875736 63.7860565,17.3844567 63.0758259,17.4934501 C62.3655953,17.6024436 61.7288368,17.7780441 61.1655505,18.0202518 C60.6022641,18.2624595 60.1430633,18.6076055 59.787948,19.0556897 C59.4328327,19.5037739 59.255275,20.1153483 59.255275,20.8904129 C59.255275,21.399049 59.3593606,21.8289677 59.5675316,22.1801688 C59.7757026,22.53137 60.0451005,22.815964 60.3757251,23.0339509 C60.7063497,23.2519378 61.0920783,23.4093728 61.5329111,23.5062559 C61.9737439,23.603139 62.4390674,23.6515805 62.9288817,23.6515805 C63.9574915,23.6515805 64.8391571,23.5123111 65.5738784,23.2337723 C66.3085998,22.9552334 66.9086222,22.6040323 67.3739457,22.1801688 C67.8392692,21.7563054 68.1821392,21.2961108 68.4025556,20.799585 C68.622972,20.3030593 68.7331801,19.8368095 68.7331801,19.4008356 L68.7331801,16.2400253 Z" id="Shape"></path>
                    <polygon id="Path" points="75.1619918 23.5789182 75.1619918 25.9404432 91.1789167 25.9404432 91.1789167 23.2156067 79.0560148 23.2156067 90.6646118 9.26444398 90.6646118 7.15723712 75.8967131 7.15723712 75.8967131 9.88207358 86.6236445 9.88207358"></polygon>
                    <path d="M111.163337,25.8677809 C110.624541,26.1826508 109.877574,26.3400858 108.922437,26.3400858 C108.114243,26.3400858 107.471362,26.1160437 106.993793,25.6679595 C106.516224,25.2198753 106.27744,24.487197 106.27744,23.4699248 C105.420265,24.487197 104.422269,25.2198753 103.283451,25.6679595 C102.144632,26.1160437 100.913974,26.3400858 99.5914759,26.3400858 C98.734301,26.3400858 97.9199849,26.2432028 97.1485275,26.0494366 C96.3770701,25.8556705 95.7096982,25.5529109 95.1464119,25.1411578 C94.5831255,24.7294047 94.13617,24.1904926 93.8055454,23.5244215 C93.4749208,22.8583504 93.3096085,22.0530098 93.3096085,21.1083998 C93.3096085,20.042686 93.4932889,19.1707383 93.8606495,18.4925568 C94.2280102,17.8143753 94.7117017,17.2633528 95.3117242,16.8394894 C95.9117466,16.4156259 96.5974865,16.0947007 97.3689439,15.8767138 C98.1404013,15.6587269 98.9302267,15.4770711 99.7384202,15.3317465 C100.595595,15.1622011 101.409911,15.0350421 102.181369,14.9502694 C102.952826,14.8654967 103.632443,14.7443929 104.22022,14.5869579 C104.807997,14.4295229 105.273321,14.1994256 105.616191,13.896666 C105.959061,13.5939064 106.130496,13.1518773 106.130496,12.5705789 C106.130496,11.8923974 106.001919,11.3474301 105.744767,10.935677 C105.487615,10.523924 105.15699,10.209054 104.752893,9.99106704 C104.348796,9.77308013 103.895718,9.62775551 103.393659,9.55509321 C102.891599,9.4824309 102.395662,9.44609975 101.905848,9.44609975 C100.58335,9.44609975 99.4812677,9.69436263 98.5996021,10.1908884 C97.7179365,10.6874141 97.2403676,11.6259689 97.1668955,13.0065527 L94.0443299,13.0065527 C94.0933113,11.8439558 94.3382184,10.8630147 94.7790512,10.0637293 C95.219884,9.26444398 95.8076611,8.61653843 96.5423824,8.12001267 C97.2771037,7.62348691 98.1159106,7.26623058 99.0588029,7.04824366 C100.001695,6.83025674 101.011937,6.72126328 102.089528,6.72126328 C102.946703,6.72126328 103.797755,6.7818152 104.642685,6.90291905 C105.487615,7.02402289 106.252949,7.27228577 106.938689,7.64770768 C107.624429,8.02312959 108.17547,8.54993131 108.591812,9.22811283 C109.008154,9.90629435 109.216325,10.7903524 109.216325,11.880287 L109.216325,21.5443737 C109.216325,22.2709967 109.259184,22.8038536 109.344902,23.1429444 C109.430619,23.4820351 109.718385,23.6515805 110.208199,23.6515805 C110.477597,23.6515805 110.795976,23.5910286 111.163337,23.4699248 L111.163337,25.8677809 Z M106.09376,16.2400253 C105.701908,16.5306746 105.187603,16.7426063 104.550845,16.8758205 C103.914086,17.0090347 103.246714,17.1180282 102.548729,17.2028009 C101.850744,17.2875736 101.146636,17.3844567 100.436405,17.4934501 C99.7261748,17.6024436 99.0894163,17.7780441 98.52613,18.0202518 C97.9628436,18.2624595 97.5036428,18.6076055 97.1485275,19.0556897 C96.7934122,19.5037739 96.6158545,20.1153483 96.6158545,20.8904129 C96.6158545,21.399049 96.71994,21.8289677 96.9281111,22.1801688 C97.1362821,22.53137 97.4056799,22.815964 97.7363045,23.0339509 C98.0669291,23.2519378 98.4526578,23.4093728 98.8934906,23.5062559 C99.3343234,23.603139 99.7996469,23.6515805 100.289461,23.6515805 C101.318071,23.6515805 102.199737,23.5123111 102.934458,23.2337723 C103.669179,22.9552334 104.269202,22.6040323 104.734525,22.1801688 C105.199849,21.7563054 105.542719,21.2961108 105.763135,20.799585 C105.983551,20.3030593 106.09376,19.8368095 106.09376,19.4008356 L106.09376,16.2400253 Z" id="Shape"></path>
                </g>
                <g id="ITM-Logo2-01">
                    <text id="ITM" fill="#472F92" font-family="Helvetica" font-size="39.7841929" font-weight="normal">
                        <tspan x="38.1441421" y="55.3455495">ITM</tspan>
                    </text>
                    <path d="M0.533209723,28.3366446 C2.37223593,35.1734734 7.48401952,40.1576557 14.5952586,44.0211342 C19.8978686,46.9006457 25.2342532,49.7506649 27.9632397,54.7053549 C28.1017155,54.5431478 28.4394614,53.8406972 28.5492288,52.95325 C29.3378654,45.3120884 25.6496806,39.1857535 18.1686098,34.5715644 C11.1282973,30.2174428 4.37338015,25.7668013 0.995921551,18.7275487 C-0.148025741,21.8519196 -0.309223193,25.1513264 0.526454806,28.3366446 M0.602447625,1.08316817 C-0.978202999,8.96831074 0.344072042,16.2153493 8.03285654,22.019951 C10.1319471,23.6071677 12.2040179,25.2372822 14.4702926,26.6609513 C20.6442869,30.5351543 25.9891152,34.8758703 28.3533362,41.3561115 C29.3530639,38.4538107 29.1808135,35.8209613 28.9528351,33.2310097 C28.473236,27.7266922 26.1005713,22.8081971 20.9989201,18.9031614 C17.5015617,16.2220521 13.8319529,13.7058309 10.1150598,11.2164209 C5.70747629,8.26720065 1.63932741,4.78175851 0.762876908,0 C0.712215029,0.361949761 0.681817902,0.723899521 0.610891271,1.08316817" id="Shape" fill="url(#linearGradient-1)"></path>
                </g>
            </g>
        </g>
    </g>
</svg>